# xmcd CD database file
#
# Track frame offsets:
#	150
#	12405
#	26985
#	35735
#	41745
#	47750
#	61044
#	68720
#	83896
#	91322
#	103028
#	107492
#	110223
#	130260
#	144314
#	155664
#	164755
#	185739
#	194102
#	200644
#	246763
#	256164
#
# Disc length: 3756 seconds
#
# Revision: 0
# Processed by: cddbd v1.5.2PL0 Copyright (c) Steve Scherf et al.
# Submitted via: CDex 1.51
#
DISCID=490eaa16
DTITLE=Chopin - Monsieur Chopin ou le voyage de la note bleue
DYEAR=2010
DGENRE=Enfants
TTITLE0=C'est arrivé ce matin avec le vent...
TTITLE1=Mon cher Titus
TTITLE2=Oh Titus, oh Titus
TTITLE3=Ah il l'a cherchée toute sa vie...
TTITLE4=Mon cher toi, mon gentil Titus
TTITLE5=Ah non ! Titus !
TTITLE6=Je le retrouverais bien, ce Chopinek...
TTITLE7=Salut à toi, momie !
TTITLE8=Non, même avec le temps
TTITLE9=Bien cher peTitus
TTITLE10=Ah oui, je fus grand
TTITLE11=Cet été-là, Frédéric est bien venu...
TTITLE12=Monsieur pas loin, ici Chopin
TTITLE13=Cher ami de gentil génie
TTITLE14=Vers midi
TTITLE15=Je ne me souviens plus
TTITLE16=Cher Titus pas minus
TTITLE17=Mon bien-aimé Titus
TTITLE18=Chopin a grandi
TTITLE19=Je ne l'ai jamais revu
TTITLE20=Mazurka n°3 opus 63 en do# mineur
TTITLE21=Nocturne n°1 opus 9 en si bémol mineur
EXTD=YEAR: 2010
EXTT0=
EXTT1=
EXTT2=
EXTT3=
EXTT4=
EXTT5=
EXTT6=
EXTT7=
EXTT8=
EXTT9=
EXTT10=
EXTT11=
EXTT12=
EXTT13=
EXTT14=
EXTT15=
EXTT16=
EXTT17=
EXTT18=
EXTT19=
EXTT20=
EXTT21=
PLAYORDER=
